<svg width="18" height="14" viewBox="0 0 18 14" fill="none" xmlns="http://www.w3.org/2000/svg">
<path fill-rule="evenodd" clip-rule="evenodd" d="M10.2012 0.216507C9.83752 -0.101714 9.28473 -0.0648615 8.96651 0.29882C8.64829 0.662501 8.68514 1.21529 9.04882 1.53351L14.2962 6.125H0.874999C0.39175 6.125 0 6.51675 0 7C0 7.48325 0.39175 7.875 0.874999 7.875H14.2962L9.04882 12.4665C8.68514 12.7847 8.64829 13.3375 8.96651 13.7012C9.28473 14.0649 9.83752 14.1017 10.2012 13.7835L17.2012 7.6585C17.2384 7.62595 17.2725 7.59056 17.3033 7.5528C17.4155 7.41528 17.4867 7.24301 17.4983 7.05461C17.4994 7.03648 17.5 7.01827 17.5 7C17.5 6.98173 17.4994 6.96351 17.4983 6.94539C17.4866 6.75604 17.4148 6.58298 17.3016 6.44513C17.2712 6.40815 17.2377 6.37345 17.2012 6.3415L10.2012 0.216507Z" fill="#155665"/>
</svg>
