<svg width="24" height="24" viewBox="0 0 24 24" fill="none" xmlns="http://www.w3.org/2000/svg">
<path fill-rule="evenodd" clip-rule="evenodd" d="M0 12C0 5.37272 5.37272 0 12 0C18.6273 0 24 5.37272 24 12C24 18.6273 18.6273 24 12 24C5.37272 24 0 18.6273 0 12Z" fill="white"/>
<path fill-rule="evenodd" clip-rule="evenodd" d="M16.5151 7.91063C17.0164 8.24483 17.1519 8.92214 16.8177 9.42345L12.4541 15.9689C12.1199 16.4702 11.4425 16.6057 10.9412 16.2715L7.66851 14.0896C7.16721 13.7554 7.03175 13.0781 7.36595 12.5768C7.70015 12.0755 8.37747 11.9401 8.87877 12.2743L11.2438 13.851L15.0023 8.21319C15.3365 7.71189 16.0138 7.57643 16.5151 7.91063Z" fill="#155665"/>
</svg>
