<svg width="52" height="134" viewBox="0 0 52 134" fill="none" xmlns="http://www.w3.org/2000/svg">
<path fill-rule="evenodd" clip-rule="evenodd" d="M25.5482 133.71C32.5979 133.702 38.9923 130.827 43.6287 126.191C48.2634 121.556 51.1401 115.157 51.1494 108.109L51.2274 36.2577L45.8606 36.2645L45.9017 3.28854C45.9049 2.40869 45.5648 1.58189 44.9423 0.959455C44.3199 0.337004 43.4931 -0.00306892 42.6164 4.39135e-05L8.38832 0.0421597C6.58808 0.0452878 5.12012 1.51637 5.11388 3.31973L5.07271 36.3168L0.0780201 36.3232L2.3575e-05 108.162C-0.0093361 114.995 2.64267 121.416 7.46932 126.242C12.2944 131.067 18.7154 133.719 25.5482 133.71ZM5.06708 40.8341L4.58955 40.8347L4.51779 108.168C4.51 113.792 6.69244 119.076 10.6642 123.047C14.6344 127.018 19.9182 129.2 25.542 129.192C37.1593 129.181 46.6176 119.717 46.6317 108.102L46.7034 40.7817L19.2618 40.8163L5.06708 40.8347L5.06708 40.8341ZM41.3434 36.2701L9.59109 36.3107L9.59827 30.4649L41.3506 30.4258L41.3434 36.2701ZM41.3561 25.908L9.60382 25.9471L9.63009 4.55994L41.3824 4.51938L41.3561 25.908ZM16.0783 114.199C15.4536 113.415 15.1556 112.274 15.1556 110.876L15.1556 107.296L36.1556 107.296L36.1556 112.433C36.1556 113.035 36.1136 113.307 36.0421 113.479C35.6798 114.346 34.7422 115.37 33.1718 116.283C31.6361 117.177 29.6697 117.859 27.5542 118.147C23.288 118.727 18.8492 117.678 16.0783 114.199ZM11.1556 110.876C11.1556 112.745 11.5395 114.921 12.9494 116.691C16.8773 121.623 22.9402 122.812 28.0937 122.11C30.688 121.757 33.1609 120.917 35.1833 119.741C37.171 118.584 38.9103 116.99 39.7329 115.021C40.1384 114.05 40.1556 113.069 40.1556 112.433L40.1556 107.296C40.1556 105.087 38.3648 103.296 36.1556 103.296L15.1556 103.296C12.9465 103.296 11.1556 105.087 11.1556 107.296L11.1556 110.876Z" fill="#155665"/>
</svg>
