<svg width="46" height="48" viewBox="0 0 46 48" fill="none" xmlns="http://www.w3.org/2000/svg">
<path d="M42.4628 19.0505V12.7673C42.4663 10.3145 41.762 7.91271 40.4346 5.85011C39.1071 3.78751 37.2127 2.15169 34.9787 1.13885C32.7448 0.12602 30.266 -0.220808 27.8398 0.139975C25.4137 0.500758 23.1431 1.55383 21.3005 3.17287C19.4583 1.55334 17.1879 0.499834 14.7618 0.138807C12.3357 -0.22222 9.8569 0.124569 7.623 1.13755C5.3891 2.15054 3.495 3.78667 2.16803 5.84958C0.84106 7.91248 0.137611 10.3145 0.142111 12.7673V31.2617H8.8841V12.7673C8.86721 12.2283 8.95879 11.6914 9.15341 11.1885C9.34802 10.6856 9.64169 10.2269 10.017 9.83966C10.3923 9.45242 10.8416 9.14453 11.3382 8.93427C11.8347 8.72401 12.3685 8.61566 12.9078 8.61566C13.447 8.61566 13.9808 8.72401 14.4774 8.93427C14.974 9.14453 15.4233 9.45242 15.7986 9.83966C16.1739 10.2269 16.4675 10.6856 16.6621 11.1885C16.8568 11.6914 16.9483 12.2283 16.9315 12.7673V31.2617H25.6734V12.7673C25.6566 12.2283 25.7481 11.6914 25.9427 11.1885C26.1374 10.6856 26.431 10.2269 26.8063 9.83966C27.1816 9.45242 27.6309 9.14453 28.1275 8.93427C28.6241 8.72401 29.1579 8.61566 29.6971 8.61566C30.2364 8.61566 30.7701 8.72401 31.2667 8.93427C31.7633 9.14453 32.2126 9.45242 32.5879 9.83966C32.9632 10.2269 33.2569 10.6856 33.4515 11.1885C33.6461 11.6914 33.7377 12.2283 33.7208 12.7673V19.0347C32.359 19.9681 31.3318 21.3128 30.7894 22.872C30.247 24.4313 30.2179 26.1232 30.7065 27.7002C31.195 29.2772 32.1755 30.6563 33.5044 31.6359C34.8333 32.6154 36.4409 33.1438 38.0918 33.1438C39.7427 33.1438 41.3503 32.6154 42.6792 31.6359C44.0081 30.6563 44.9886 29.2772 45.4771 27.7002C45.9657 26.1232 45.9366 24.4313 45.3942 22.872C44.8518 21.3128 43.8245 19.9681 42.4628 19.0347V19.0505ZM38.0977 27.978C37.5864 27.978 37.0866 27.8264 36.6615 27.5423C36.2364 27.2583 35.905 26.8545 35.7094 26.3822C35.5137 25.9098 35.4625 25.39 35.5623 24.8886C35.662 24.3871 35.9082 23.9265 36.2698 23.565C36.6313 23.2034 37.0919 22.9572 37.5934 22.8575C38.0948 22.7577 38.6146 22.8089 39.087 23.0046C39.5593 23.2002 39.9631 23.5316 40.2471 23.9567C40.5312 24.3818 40.6828 24.8816 40.6828 25.3929C40.6818 26.0782 40.4091 26.7351 39.9245 27.2197C39.4399 27.7043 38.783 27.977 38.0977 27.978Z" fill="white"/>
<path d="M0.540831 47.8142C0.468632 47.8137 0.397253 47.7989 0.330848 47.7705C0.264443 47.7422 0.204337 47.7009 0.154024 47.6491C0.10371 47.5974 0.0641935 47.5361 0.0377739 47.4689C0.0113542 47.4017 -0.00144234 47.3299 0.00012901 47.2578V38.8868C0.000125235 38.743 0.0569652 38.6051 0.158254 38.503C0.259543 38.401 0.397066 38.3432 0.540831 38.3421H1.45647C1.60656 38.3439 1.75091 38.4001 1.8627 38.5002C1.97448 38.6004 2.04611 38.7378 2.06426 38.8868L2.09584 39.238C2.38031 38.9143 2.7289 38.6531 3.11953 38.471C3.51016 38.289 3.93433 38.19 4.3652 38.1803C5.6834 38.1803 6.4096 38.6342 6.81611 39.3959C7.10571 39.0332 7.46982 38.737 7.88381 38.5273C8.29781 38.3176 8.75202 38.1993 9.21572 38.1803C11.4338 38.1803 12.0258 39.3446 12.0258 41.3929V47.2578C12.0263 47.3292 12.0126 47.4001 11.9853 47.4662C11.9581 47.5323 11.9179 47.5923 11.8672 47.6427C11.8165 47.693 11.7562 47.7328 11.6899 47.7595C11.6236 47.7863 11.5526 47.7995 11.4811 47.7984H10.2971C10.2258 47.7995 10.155 47.7863 10.0889 47.7595C10.0229 47.7327 9.96284 47.6929 9.91241 47.6425C9.86199 47.592 9.8222 47.532 9.79541 47.4659C9.76861 47.3998 9.75535 47.3291 9.75642 47.2578V41.5745C9.75642 40.4931 9.58671 40.0195 8.65528 40.0195C8.35565 40.0358 8.06305 40.1165 7.79743 40.2561C7.53181 40.3958 7.29941 40.591 7.11606 40.8285C7.14731 41.064 7.1592 41.3016 7.15158 41.539V47.2578C7.15924 47.3955 7.11276 47.5308 7.02207 47.6348C6.93138 47.7387 6.80365 47.8031 6.66614 47.8142H5.48212C5.40959 47.8143 5.33779 47.7998 5.27092 47.7717C5.20406 47.7436 5.14348 47.7024 5.09275 47.6505C5.04202 47.5987 5.00215 47.5373 4.97548 47.4698C4.94882 47.4024 4.9359 47.3303 4.93748 47.2578V41.6416C4.93748 40.5602 4.75198 40.0353 3.82055 40.0353C3.50769 40.0592 3.20396 40.1519 2.93106 40.3067C2.65816 40.4616 2.42283 40.6748 2.24187 40.9312V47.2578C2.24293 47.3291 2.22967 47.3998 2.20287 47.4659C2.17608 47.532 2.13629 47.592 2.08587 47.6425C2.03545 47.6929 1.97542 47.7327 1.90933 47.7595C1.84325 47.7863 1.77246 47.7995 1.70116 47.7984L0.540831 47.8142Z" fill="white"/>
<path d="M17.7368 47.9839C15.3688 47.9839 13.8809 46.6302 13.8809 44.4319V41.7323C13.8809 39.5143 15.353 38.1803 17.7368 38.1803C20.1206 38.1803 21.5572 39.5301 21.5572 41.7323V42.9479C21.5572 43.0865 21.5025 43.2194 21.4049 43.3177C21.3073 43.416 21.1748 43.4718 21.0363 43.4729H16.1384V44.3332C16.1384 45.6199 16.7146 46.1961 17.7447 46.1961C18.8774 46.1961 19.2839 45.5015 19.2839 45.0121C19.2839 44.7082 19.4536 44.5542 19.7733 44.5542H21.0442C21.1098 44.5528 21.175 44.5653 21.2355 44.5909C21.296 44.6165 21.3503 44.6546 21.3951 44.7027C21.4398 44.7507 21.4738 44.8077 21.495 44.8699C21.5161 44.9321 21.5239 44.998 21.5178 45.0634C21.5099 46.3579 20.2075 47.9839 17.7368 47.9839ZM16.1147 41.8429V42.0797L19.3273 42.0283V41.8113C19.3273 40.5917 18.7866 39.9484 17.7486 39.9484C16.7107 39.9484 16.1147 40.576 16.1147 41.8429Z" fill="white"/>
<path d="M23.503 44.6175V40.0353H23.128C23.0582 40.0343 22.9893 40.0195 22.9253 39.9917C22.8613 39.9639 22.8034 39.9237 22.7549 39.8735C22.7065 39.8232 22.6685 39.7638 22.6431 39.6988C22.6178 39.6338 22.6055 39.5644 22.6071 39.4946V38.8868C22.6055 38.8168 22.6177 38.7472 22.6431 38.682C22.6684 38.6168 22.7063 38.5571 22.7547 38.5066C22.8031 38.456 22.861 38.4154 22.925 38.3872C22.9891 38.359 23.0581 38.3437 23.128 38.3422H23.6016L23.7713 36.5188C23.7904 36.3705 23.8624 36.2341 23.9741 36.1347C24.0858 36.0354 24.2297 35.9797 24.3791 35.9781H25.2158C25.2871 35.977 25.3579 35.9903 25.424 36.0171C25.4901 36.0439 25.5501 36.0837 25.6006 36.1341C25.651 36.1845 25.6908 36.2445 25.7176 36.3106C25.7444 36.3767 25.7576 36.4475 25.7565 36.5188V38.3422H27.651C27.7225 38.3416 27.7933 38.3554 27.8594 38.3826C27.9255 38.4099 27.9855 38.45 28.0359 38.5008C28.0863 38.5515 28.126 38.6118 28.1527 38.6781C28.1795 38.7444 28.1927 38.8153 28.1917 38.8868V39.4946C28.1927 39.5659 28.1795 39.6367 28.1527 39.7028C28.1259 39.7689 28.0861 39.8289 28.0357 39.8793C27.9853 39.9297 27.9252 39.9695 27.8591 39.9963C27.7931 40.0231 27.7223 40.0364 27.651 40.0353H25.7565V44.6017C25.7565 45.7146 26.1828 46.2238 27.1458 46.2238C27.3888 46.2244 27.6315 46.2072 27.872 46.1725C27.9335 46.1569 27.9978 46.1564 28.0595 46.171C28.1212 46.1856 28.1785 46.2149 28.2265 46.2563C28.2746 46.2977 28.3119 46.3501 28.3354 46.409C28.3588 46.468 28.3678 46.5317 28.3614 46.5948V47.3249C28.3566 47.4735 28.2998 47.6156 28.201 47.7267C28.1023 47.8377 27.9677 47.9106 27.8207 47.9327C27.4675 47.9801 27.1114 48.0025 26.7551 47.9998C24.5173 47.9998 23.503 46.8316 23.503 44.6175Z" fill="white"/>
<path d="M34.2064 38.5986V39.6958C34.2109 39.7542 34.2024 39.8128 34.1815 39.8674C34.1606 39.9221 34.1278 39.9714 34.0855 40.0118C34.0432 40.0522 33.9924 40.0827 33.9369 40.1011C33.8813 40.1195 33.8224 40.1253 33.7643 40.1181C33.3738 40.1229 32.9902 40.2224 32.6465 40.408C32.3028 40.5936 32.0092 40.8598 31.791 41.1837V47.2577C31.792 47.329 31.7788 47.3998 31.752 47.4659C31.7252 47.532 31.6854 47.592 31.635 47.6424C31.5846 47.6929 31.5245 47.7326 31.4584 47.7594C31.3924 47.7862 31.3216 47.7995 31.2503 47.7984H30.0663C29.9291 47.7885 29.8006 47.7275 29.7063 47.6273C29.612 47.5272 29.5588 47.3953 29.5571 47.2577V38.8867C29.5581 38.7433 29.6153 38.6059 29.7164 38.5041C29.8175 38.4023 29.9544 38.3442 30.0978 38.3421H30.9622C31.1111 38.3426 31.2552 38.3955 31.3692 38.4914C31.4832 38.5873 31.5598 38.7203 31.5857 38.867L31.6568 39.4432C31.8977 39.0911 32.2125 38.7957 32.5792 38.5776C32.9459 38.3595 33.3557 38.2239 33.7801 38.1803C33.8366 38.1756 33.8934 38.1832 33.9467 38.2025C34 38.2217 34.0485 38.2523 34.0889 38.292C34.1294 38.3316 34.1608 38.3796 34.1811 38.4325C34.2013 38.4854 34.21 38.5421 34.2064 38.5986Z" fill="white"/>
<path d="M34.9482 44.4161V41.7323C34.9482 39.5143 36.4204 38.1803 38.8042 38.1803C41.188 38.1803 42.6246 39.5301 42.6246 41.7323V44.4043C42.6246 46.6184 41.1525 47.9563 38.8042 47.9563C36.4559 47.9563 34.9482 46.6302 34.9482 44.4161ZM37.1979 41.9297V44.2267C37.1979 45.5133 37.7741 46.2 38.8042 46.2C39.8343 46.2 40.3829 45.5251 40.3829 44.2267V41.9297C40.3829 40.6431 39.8264 39.9563 38.8042 39.9563C37.782 39.9563 37.1979 40.6431 37.1979 41.9297Z" fill="white"/>
</svg>
