<svg width="64" height="72" viewBox="0 0 64 72" fill="none" xmlns="http://www.w3.org/2000/svg">
<path d="M19.235 31.5263L20.7322 30.7558L21.5862 33.546L20.1477 34.2897C20.5747 35.6272 20.9991 36.8792 21.5808 38.725L32.1252 33.0297L42.6855 38.7384L44.1053 34.3245L33.3581 28.7789L32.1812 24.9321L45.0794 31.6199L50.489 14.4055C50.5369 14.2492 50.5305 14.0811 50.4708 13.9289C50.4111 13.7767 50.3016 13.6493 50.1602 13.5676C50.0189 13.4858 49.854 13.4546 49.6927 13.479C49.5313 13.5035 49.383 13.5821 49.272 13.702L45.4957 17.8109L35.1515 1.56494C34.8082 1.08422 34.3562 0.691805 33.8325 0.419804C33.3088 0.147804 32.7283 0.00394576 32.1385 0H32.0851C31.4952 0.00523528 30.9148 0.149636 30.3908 0.421513C29.8669 0.69339 29.4142 1.0851 29.0694 1.56494L18.7813 17.7334L15.0584 13.6725C14.9487 13.5506 14.8006 13.4702 14.6389 13.4445C14.4772 13.4189 14.3116 13.4497 14.1697 13.5317C14.0279 13.6138 13.9185 13.7421 13.8597 13.8953C13.8009 14.0485 13.7963 14.2173 13.8468 14.3734L19.235 31.5263ZM23.7719 32.4117L22.9179 29.6243L25.4185 28.3375L26.2699 31.1197L23.7719 32.4117ZM28.4636 29.9827L27.6123 27.206L29.9635 25.9968L30.8201 28.7789L28.4636 29.9827ZM31.3993 3.24492C31.4785 3.13518 31.5823 3.04559 31.7024 2.98333C31.8224 2.92108 31.9553 2.8879 32.0905 2.88645H32.1252C32.2603 2.8879 32.3932 2.92108 32.5133 2.98333C32.6333 3.04559 32.7371 3.13518 32.8164 3.24492L43.4914 20.0045L41.5699 22.0911L35.9068 19.0335L32.731 9.45922C32.6855 9.32545 32.5995 9.20929 32.4848 9.12703C32.3702 9.04478 32.2328 9.00055 32.0918 9.00055C31.9508 9.00055 31.8134 9.04478 31.6988 9.12703C31.5841 9.20929 31.4981 9.32545 31.4526 9.45922L28.2768 19.0335H28.0713L22.6617 21.9761L20.7936 19.9243L31.3993 3.24492Z" fill="#DBE2EA"/>
<path d="M40.665 44.7681L41.7325 41.3279C38.1563 38.5538 34.5108 38.8801 34.5108 38.8801C33.6888 38.8801 35.3381 41.7238 35.7278 42.8928C36.1174 44.0618 37.9935 44.3775 37.9935 44.3775C38.8911 44.4537 39.7832 44.5841 40.665 44.7681Z" fill="#DBE2EA"/>
<path d="M17.5026 34.5063L12.979 54.1872L26.3095 62.3222L22.6239 50.7577L20.0432 48.5079L21.2682 46.5792L17.5026 34.5063Z" fill="#DBE2EA"/>
<path d="M46.5631 34.5892L43.0083 45.9264L43.913 50.6694L40.5183 53.8715L37.8735 62.2928L51.164 54.0721L46.5631 34.5892Z" fill="#DBE2EA"/>
<path d="M33.3577 52.3948L37.3609 52.9619L34.7935 50.648L32.8907 50.0755L33.8808 49.1606H35.2872C35.265 48.5321 35.1228 47.9137 34.8682 47.3389C34.4519 46.4266 32.0527 46.3517 31.3081 46.2688C30.5635 46.1859 30.7263 45.1988 30.7263 45.1988L30.7076 38.5671L22.2983 40.1722C22.9175 42.1197 23.4993 43.9441 23.8996 45.2228L28.5219 44.0003L28.3431 50.3216C28.3431 50.3216 27.1075 51.3087 25.6903 50.8566L30.0751 64.6255L32.1461 65.8908L34.2411 64.588C35.0417 62.0065 35.885 59.3154 36.5282 57.2448C35.55 57.7766 34.4809 58.1196 33.3764 58.256C33.3764 58.256 31.0839 58.5904 30.729 57.0495C30.4621 55.942 31.3268 55.5889 31.8472 55.3321C32.3676 55.0753 33.8087 54.4975 33.8087 54.4975L32.9254 53.39C32.0367 52.2878 33.3577 52.3948 33.3577 52.3948Z" fill="#DBE2EA"/>
<path d="M63.2215 39.3644L53.1308 38.2141L51.7965 32.8986L62.3221 25.0338C62.4511 24.9373 62.5441 24.8002 62.5861 24.6444C62.628 24.4886 62.6165 24.3232 62.5534 24.1747C62.4903 24.0263 62.3792 23.9034 62.238 23.8258C62.0969 23.7482 61.9338 23.7205 61.775 23.747L49.9764 25.5581L48.319 30.8147L54.3211 54.9122C54.3626 55.0887 54.3472 55.2738 54.2772 55.4411C54.2072 55.6083 54.0862 55.7491 53.9315 55.8431L32.5573 68.9967C32.5108 69.0247 32.4616 69.048 32.4105 69.0662C32.1435 69.1135 31.8683 69.0702 31.6286 68.9432L31.7193 68.9993C31.7873 69.0393 31.8599 69.0707 31.9355 69.093L32.0502 69.1144C32.0795 69.117 32.109 69.117 32.1383 69.1144H32.125C31.9675 69.1154 31.813 69.0718 31.6793 68.9886L10.2917 55.8351C10.137 55.741 10.016 55.6003 9.94603 55.4331C9.87604 55.2658 9.86066 55.0807 9.90211 54.9041L15.9522 30.6167L14.2949 25.3601L2.08795 23.739C1.93038 23.7165 1.76982 23.7471 1.63151 23.8261C1.4932 23.905 1.38499 24.0278 1.32388 24.1751C1.26277 24.3224 1.25223 24.4859 1.29392 24.6399C1.33562 24.7939 1.42717 24.9296 1.55419 25.0257L12.3681 33.1313L11.1137 38.1632L0.633468 39.3644C0.474927 39.3832 0.327167 39.4544 0.213552 39.5669C0.0999375 39.6793 0.0269504 39.8265 0.00613134 39.9851C-0.0146877 40.1438 0.0178491 40.3049 0.0985973 40.4429C0.179346 40.581 0.303698 40.6881 0.451992 40.7474L9.54716 44.3829L7.09723 54.2461C6.91782 55.0135 6.98452 55.818 7.28784 56.5452C7.59115 57.2724 8.11562 57.8852 8.78656 58.2962L30.1581 71.4497C30.745 71.8096 31.4196 72 32.1076 72C32.7956 72 33.4702 71.8096 34.0571 71.4497L55.4367 58.2935C56.1071 57.8826 56.6312 57.2703 56.9345 56.5437C57.2378 55.8171 57.3048 55.0131 57.126 54.2461L54.628 44.217L63.4056 40.7394C63.5501 40.6777 63.6705 40.5701 63.7482 40.4332C63.8259 40.2963 63.8567 40.1377 63.8358 39.9816C63.8148 39.8255 63.7434 39.6806 63.6325 39.5691C63.5215 39.4576 63.3771 39.3857 63.2215 39.3644Z" fill="#DBE2EA"/>
</svg>
